<svg xmlns="http://www.w3.org/2000/svg" viewBox="0 0 1731 909" role="img" aria-label="Sala tranquila para constelaciones familiares">
  <defs>
    <linearGradient id="wall" x1="0" y1="0" x2="1" y2="1">
      <stop offset="0" stop-color="#f2e8df"/>
      <stop offset="0.55" stop-color="#d8cabc"/>
      <stop offset="1" stop-color="#a8b09b"/>
    </linearGradient>
    <linearGradient id="floor" x1="0" y1="0" x2="1" y2="0">
      <stop offset="0" stop-color="#6f6259"/>
      <stop offset="1" stop-color="#9c7a68"/>
    </linearGradient>
    <radialGradient id="light" cx="72%" cy="28%" r="60%">
      <stop offset="0" stop-color="#fffaf6" stop-opacity="0.95"/>
      <stop offset="0.62" stop-color="#fffaf6" stop-opacity="0.18"/>
      <stop offset="1" stop-color="#fffaf6" stop-opacity="0"/>
    </radialGradient>
  </defs>
  <rect width="1731" height="909" fill="url(#wall)"/>
  <rect y="590" width="1731" height="319" fill="url(#floor)" opacity="0.78"/>
  <rect x="1010" y="82" width="470" height="445" rx="10" fill="#f8f1eb" opacity="0.72"/>
  <g stroke="#74685f" stroke-width="8" opacity="0.32">
    <path d="M1086 82v445M1164 82v445M1242 82v445M1320 82v445M1398 82v445"/>
    <path d="M1010 214h470M1010 358h470"/>
  </g>
  <circle cx="1270" cy="315" r="250" fill="url(#light)"/>
  <g opacity="0.93">
    <ellipse cx="1185" cy="682" rx="128" ry="38" fill="#4e624f" opacity="0.22"/>
    <ellipse cx="1390" cy="690" rx="120" ry="36" fill="#4e624f" opacity="0.18"/>
    <ellipse cx="1515" cy="694" rx="96" ry="30" fill="#4e624f" opacity="0.16"/>
    <g fill="#433a34">
      <circle cx="1165" cy="422" r="44"/>
      <rect x="1118" y="468" width="94" height="158" rx="45"/>
      <circle cx="1376" cy="440" r="42"/>
      <rect x="1330" y="485" width="92" height="150" rx="44"/>
      <circle cx="1512" cy="455" r="38"/>
      <rect x="1472" y="497" width="82" height="136" rx="40"/>
    </g>
    <g fill="none" stroke="#433a34" stroke-width="18" stroke-linecap="round" opacity="0.88">
      <path d="M1124 628l-58 116M1202 628l55 116M1335 632l-52 104M1418 632l54 104M1478 628l-38 92M1548 628l44 92"/>
    </g>
    <path d="M1130 545c-92 18-158 73-185 152" fill="none" stroke="#b8674a" stroke-width="24" stroke-linecap="round" opacity="0.5"/>
  </g>
  <g opacity="0.8">
    <path d="M210 650c60-115 154-170 282-166 136 4 220 81 267 184" fill="none" stroke="#768876" stroke-width="28" stroke-linecap="round"/>
    <circle cx="494" cy="442" r="54" fill="#4e624f"/>
    <path d="M446 510h96c54 0 98 44 98 98v78H348v-78c0-54 44-98 98-98z" fill="#4e624f" opacity="0.92"/>
  </g>
  <rect width="1731" height="909" fill="#25201d" opacity="0.08"/>
</svg>
